<svg xmlns="http://www.w3.org/2000/svg" width="23" height="6" fill="none" viewBox="0 0 23 6">
  <path fill="#568B3E" d="M2.786 0A2.794 2.794 0 0 0 0 2.786 2.794 2.794 0 0 0 2.786 5.57 2.794 2.794 0 0 0 5.57 2.786 2.794 2.794 0 0 0 2.786 0Zm16.713 0a2.794 2.794 0 0 0-2.786 2.786A2.794 2.794 0 0 0 19.5 5.57a2.794 2.794 0 0 0 2.785-2.785A2.794 2.794 0 0 0 19.5 0Zm-8.357 0a2.794 2.794 0 0 0-2.785 2.786 2.794 2.794 0 0 0 2.785 2.785 2.794 2.794 0 0 0 2.786-2.785A2.794 2.794 0 0 0 11.142 0Z"/>
</svg>
