<svg xmlns="http://www.w3.org/2000/svg" viewBox="0 0 97.24 84.45" xmlns:v="https://vecta.io/nano"><path d="M31.51 8.36h27.01v70.49H31.51z" fill="#9d9d36"/><path d="M63.02 21.22h27.01v57.63H63.02z" fill="#568b3e"/><g fill="#feed58" stroke="#c9bc2e" stroke-width="2"><ellipse cx="58.91" cy="75.22" rx="15.21" ry="4.82"/><ellipse cx="58.91" cy="70.39" rx="15.21" ry="4.82"/><ellipse cx="58.91" cy="65.57" rx="15.21" ry="4.82"/><ellipse cx="58.91" cy="60.75" rx="15.21" ry="4.82"/></g><path d="M0 0h27.01v79.03H0z" fill="#f9a822"/><g fill="#feed58" stroke="#c9bc2e" stroke-width="2"><ellipse cx="81.02" cy="78.63" rx="15.21" ry="4.82"/><ellipse cx="81.02" cy="73.81" rx="15.21" ry="4.82"/><ellipse cx="81.02" cy="68.98" rx="15.21" ry="4.82"/><ellipse cx="81.02" cy="64.16" rx="15.21" ry="4.82"/><ellipse cx="81.02" cy="64.16" rx="15.21" ry="4.82"/><ellipse cx="81.02" cy="59.34" rx="15.21" ry="4.82"/><ellipse cx="81.02" cy="54.52" rx="15.21" ry="4.82"/><ellipse cx="81.02" cy="49.69" rx="15.21" ry="4.82"/></g></svg>