<svg xmlns="http://www.w3.org/2000/svg" width="31" height="31" fill="none" viewBox="0 0 31 31">
  <path fill="#AA1E22" d="M23.846 28.615H2.385V7.154h14.307V4.769H2.385A2.392 2.392 0 0 0 0 7.154v21.461A2.392 2.392 0 0 0 2.385 31h21.461a2.392 2.392 0 0 0 2.385-2.385V14.308h-2.385v14.307Z"/>
  <path fill="#F36E62" d="M7.154 11.923v2.385h11.923v-2.385H7.154Zm0 4.769h11.923v2.385H7.154v-2.385Zm0 4.769h11.923v2.385H7.154v-2.385Z"/>
  <path fill="#AA1E22" d="M26.23 0h-2.384v4.77h-4.77v2.384h4.77v4.77h2.385v-4.77H31V4.769h-4.77V0Z"/>
</svg>
